<mxfile host="Electron" modified="2023-10-14T11:06:38.208Z" agent="Mozilla/5.0 (Windows NT 10.0; Win64; x64) AppleWebKit/537.36 (KHTML, like Gecko) draw.io/21.5.1 Chrome/112.0.5615.204 Electron/24.6.0 Safari/537.36" etag="X6wVthQoeuwdUQJYkdZj" version="21.5.1" type="device" pages="2">
  <diagram name="稀疏prt" id="of0phU7YStOfkWXfRMpA">
    <mxGraphModel dx="1480" dy="2035" grid="1" gridSize="10" guides="1" tooltips="1" connect="1" arrows="1" fold="1" page="1" pageScale="1" pageWidth="827" pageHeight="1169" math="0" shadow="0">
      <root>
        <mxCell id="0" />
        <mxCell id="1" parent="0" />
        <mxCell id="s5ADCJKUopqWij5MdvxX-49" value="" style="rounded=0;whiteSpace=wrap;html=1;fillColor=#f5f5f5;fontColor=#333333;strokeColor=#666666;" parent="1" vertex="1">
          <mxGeometry x="80" y="-90" width="1080" height="580" as="geometry" />
        </mxCell>
        <mxCell id="s5ADCJKUopqWij5MdvxX-2" value="RSHashTable" style="text;html=1;strokeColor=none;fillColor=none;align=center;verticalAlign=middle;whiteSpace=wrap;rounded=0;fontStyle=1;fontSize=31;" parent="1" vertex="1">
          <mxGeometry x="590" y="-80" width="60" height="30" as="geometry" />
        </mxCell>
        <mxCell id="s5ADCJKUopqWij5MdvxX-3" value="" style="rounded=1;whiteSpace=wrap;html=1;fillColor=#f8cecc;strokeColor=#b85450;" parent="1" vertex="1">
          <mxGeometry x="120" y="180" width="210" height="250" as="geometry" />
        </mxCell>
        <mxCell id="s5ADCJKUopqWij5MdvxX-4" value="SparsePRTEntry" style="text;html=1;strokeColor=none;fillColor=none;align=center;verticalAlign=middle;whiteSpace=wrap;rounded=0;" parent="1" vertex="1">
          <mxGeometry x="195" y="180" width="60" height="30" as="geometry" />
        </mxCell>
        <mxCell id="s5ADCJKUopqWij5MdvxX-5" value="" style="rounded=0;whiteSpace=wrap;html=1;fillColor=#dae8fc;strokeColor=#6c8ebf;" parent="1" vertex="1">
          <mxGeometry x="202.5" y="220" width="87.5" height="60" as="geometry" />
        </mxCell>
        <mxCell id="s5ADCJKUopqWij5MdvxX-6" value="" style="rounded=0;whiteSpace=wrap;html=1;fillColor=#fff2cc;strokeColor=#d6b656;" parent="1" vertex="1">
          <mxGeometry x="202.5" y="310" width="87.5" height="20" as="geometry" />
        </mxCell>
        <mxCell id="s5ADCJKUopqWij5MdvxX-7" value="_cards" style="text;html=1;strokeColor=none;fillColor=none;align=center;verticalAlign=middle;whiteSpace=wrap;rounded=0;" parent="1" vertex="1">
          <mxGeometry x="140" y="325" width="60" height="30" as="geometry" />
        </mxCell>
        <mxCell id="s5ADCJKUopqWij5MdvxX-10" value="" style="rounded=0;whiteSpace=wrap;html=1;fillColor=#fff2cc;strokeColor=#d6b656;" parent="1" vertex="1">
          <mxGeometry x="202.5" y="330" width="87.5" height="20" as="geometry" />
        </mxCell>
        <mxCell id="s5ADCJKUopqWij5MdvxX-11" value="" style="rounded=0;whiteSpace=wrap;html=1;fillColor=#fff2cc;strokeColor=#d6b656;" parent="1" vertex="1">
          <mxGeometry x="202.5" y="350" width="87.5" height="20" as="geometry" />
        </mxCell>
        <mxCell id="s5ADCJKUopqWij5MdvxX-12" value="_region_ind" style="text;html=1;strokeColor=none;fillColor=none;align=center;verticalAlign=middle;whiteSpace=wrap;rounded=0;" parent="1" vertex="1">
          <mxGeometry x="130" y="235" width="60" height="30" as="geometry" />
        </mxCell>
        <mxCell id="s5ADCJKUopqWij5MdvxX-15" value="" style="edgeStyle=orthogonalEdgeStyle;rounded=0;orthogonalLoop=1;jettySize=auto;html=1;" parent="1" source="s5ADCJKUopqWij5MdvxX-14" target="s5ADCJKUopqWij5MdvxX-4" edge="1">
          <mxGeometry relative="1" as="geometry" />
        </mxCell>
        <mxCell id="s5ADCJKUopqWij5MdvxX-14" value="key：_region_ind" style="rounded=1;whiteSpace=wrap;html=1;fillColor=#dae8fc;strokeColor=#6c8ebf;" parent="1" vertex="1">
          <mxGeometry x="165" y="30" width="120" height="60" as="geometry" />
        </mxCell>
        <mxCell id="s5ADCJKUopqWij5MdvxX-16" value="" style="rounded=1;whiteSpace=wrap;html=1;fillColor=#f8cecc;strokeColor=#b85450;" parent="1" vertex="1">
          <mxGeometry x="380" y="180" width="210" height="250" as="geometry" />
        </mxCell>
        <mxCell id="s5ADCJKUopqWij5MdvxX-17" value="SparsePRTEntry" style="text;html=1;strokeColor=none;fillColor=none;align=center;verticalAlign=middle;whiteSpace=wrap;rounded=0;" parent="1" vertex="1">
          <mxGeometry x="455" y="180" width="60" height="30" as="geometry" />
        </mxCell>
        <mxCell id="s5ADCJKUopqWij5MdvxX-18" value="" style="rounded=0;whiteSpace=wrap;html=1;fillColor=#dae8fc;strokeColor=#6c8ebf;" parent="1" vertex="1">
          <mxGeometry x="462.5" y="220" width="87.5" height="60" as="geometry" />
        </mxCell>
        <mxCell id="s5ADCJKUopqWij5MdvxX-19" value="" style="rounded=0;whiteSpace=wrap;html=1;fillColor=#fff2cc;strokeColor=#d6b656;" parent="1" vertex="1">
          <mxGeometry x="462.5" y="310" width="87.5" height="20" as="geometry" />
        </mxCell>
        <mxCell id="s5ADCJKUopqWij5MdvxX-20" value="_cards" style="text;html=1;strokeColor=none;fillColor=none;align=center;verticalAlign=middle;whiteSpace=wrap;rounded=0;" parent="1" vertex="1">
          <mxGeometry x="400" y="325" width="60" height="30" as="geometry" />
        </mxCell>
        <mxCell id="s5ADCJKUopqWij5MdvxX-21" value="" style="rounded=0;whiteSpace=wrap;html=1;fillColor=#fff2cc;strokeColor=#d6b656;" parent="1" vertex="1">
          <mxGeometry x="462.5" y="330" width="87.5" height="20" as="geometry" />
        </mxCell>
        <mxCell id="s5ADCJKUopqWij5MdvxX-22" value="" style="rounded=0;whiteSpace=wrap;html=1;fillColor=#fff2cc;strokeColor=#d6b656;" parent="1" vertex="1">
          <mxGeometry x="462.5" y="350" width="87.5" height="20" as="geometry" />
        </mxCell>
        <mxCell id="s5ADCJKUopqWij5MdvxX-23" value="_region_ind" style="text;html=1;strokeColor=none;fillColor=none;align=center;verticalAlign=middle;whiteSpace=wrap;rounded=0;" parent="1" vertex="1">
          <mxGeometry x="390" y="235" width="60" height="30" as="geometry" />
        </mxCell>
        <mxCell id="s5ADCJKUopqWij5MdvxX-24" value="" style="edgeStyle=orthogonalEdgeStyle;rounded=0;orthogonalLoop=1;jettySize=auto;html=1;" parent="1" source="s5ADCJKUopqWij5MdvxX-25" target="s5ADCJKUopqWij5MdvxX-17" edge="1">
          <mxGeometry relative="1" as="geometry" />
        </mxCell>
        <mxCell id="s5ADCJKUopqWij5MdvxX-25" value="key：_region_ind" style="rounded=1;whiteSpace=wrap;html=1;fillColor=#dae8fc;strokeColor=#6c8ebf;" parent="1" vertex="1">
          <mxGeometry x="425" y="30" width="120" height="60" as="geometry" />
        </mxCell>
        <mxCell id="s5ADCJKUopqWij5MdvxX-26" value="" style="rounded=1;whiteSpace=wrap;html=1;fillColor=#f8cecc;strokeColor=#b85450;" parent="1" vertex="1">
          <mxGeometry x="640" y="180" width="210" height="250" as="geometry" />
        </mxCell>
        <mxCell id="s5ADCJKUopqWij5MdvxX-27" value="SparsePRTEntry" style="text;html=1;strokeColor=none;fillColor=none;align=center;verticalAlign=middle;whiteSpace=wrap;rounded=0;" parent="1" vertex="1">
          <mxGeometry x="715" y="180" width="60" height="30" as="geometry" />
        </mxCell>
        <mxCell id="s5ADCJKUopqWij5MdvxX-28" value="" style="rounded=0;whiteSpace=wrap;html=1;fillColor=#dae8fc;strokeColor=#6c8ebf;" parent="1" vertex="1">
          <mxGeometry x="722.5" y="220" width="87.5" height="60" as="geometry" />
        </mxCell>
        <mxCell id="s5ADCJKUopqWij5MdvxX-29" value="" style="rounded=0;whiteSpace=wrap;html=1;fillColor=#fff2cc;strokeColor=#d6b656;" parent="1" vertex="1">
          <mxGeometry x="722.5" y="310" width="87.5" height="20" as="geometry" />
        </mxCell>
        <mxCell id="s5ADCJKUopqWij5MdvxX-30" value="_cards" style="text;html=1;strokeColor=none;fillColor=none;align=center;verticalAlign=middle;whiteSpace=wrap;rounded=0;" parent="1" vertex="1">
          <mxGeometry x="660" y="325" width="60" height="30" as="geometry" />
        </mxCell>
        <mxCell id="s5ADCJKUopqWij5MdvxX-31" value="" style="rounded=0;whiteSpace=wrap;html=1;fillColor=#fff2cc;strokeColor=#d6b656;" parent="1" vertex="1">
          <mxGeometry x="722.5" y="330" width="87.5" height="20" as="geometry" />
        </mxCell>
        <mxCell id="s5ADCJKUopqWij5MdvxX-33" value="_region_ind" style="text;html=1;strokeColor=none;fillColor=none;align=center;verticalAlign=middle;whiteSpace=wrap;rounded=0;" parent="1" vertex="1">
          <mxGeometry x="650" y="235" width="60" height="30" as="geometry" />
        </mxCell>
        <mxCell id="s5ADCJKUopqWij5MdvxX-34" value="" style="edgeStyle=orthogonalEdgeStyle;rounded=0;orthogonalLoop=1;jettySize=auto;html=1;" parent="1" source="s5ADCJKUopqWij5MdvxX-35" target="s5ADCJKUopqWij5MdvxX-27" edge="1">
          <mxGeometry relative="1" as="geometry" />
        </mxCell>
        <mxCell id="s5ADCJKUopqWij5MdvxX-35" value="key：_region_ind" style="rounded=1;whiteSpace=wrap;html=1;fillColor=#dae8fc;strokeColor=#6c8ebf;" parent="1" vertex="1">
          <mxGeometry x="685" y="30" width="120" height="60" as="geometry" />
        </mxCell>
        <mxCell id="s5ADCJKUopqWij5MdvxX-36" value="" style="rounded=1;whiteSpace=wrap;html=1;fillColor=#f8cecc;strokeColor=#b85450;" parent="1" vertex="1">
          <mxGeometry x="910" y="180" width="210" height="250" as="geometry" />
        </mxCell>
        <mxCell id="s5ADCJKUopqWij5MdvxX-37" value="SparsePRTEntry" style="text;html=1;strokeColor=none;fillColor=none;align=center;verticalAlign=middle;whiteSpace=wrap;rounded=0;" parent="1" vertex="1">
          <mxGeometry x="985" y="180" width="60" height="30" as="geometry" />
        </mxCell>
        <mxCell id="s5ADCJKUopqWij5MdvxX-38" value="" style="rounded=0;whiteSpace=wrap;html=1;fillColor=#dae8fc;strokeColor=#6c8ebf;" parent="1" vertex="1">
          <mxGeometry x="992.5" y="220" width="87.5" height="60" as="geometry" />
        </mxCell>
        <mxCell id="s5ADCJKUopqWij5MdvxX-39" value="" style="rounded=0;whiteSpace=wrap;html=1;fillColor=#fff2cc;strokeColor=#d6b656;" parent="1" vertex="1">
          <mxGeometry x="992.5" y="310" width="87.5" height="20" as="geometry" />
        </mxCell>
        <mxCell id="s5ADCJKUopqWij5MdvxX-40" value="_cards" style="text;html=1;strokeColor=none;fillColor=none;align=center;verticalAlign=middle;whiteSpace=wrap;rounded=0;" parent="1" vertex="1">
          <mxGeometry x="930" y="325" width="60" height="30" as="geometry" />
        </mxCell>
        <mxCell id="s5ADCJKUopqWij5MdvxX-41" value="" style="rounded=0;whiteSpace=wrap;html=1;fillColor=#fff2cc;strokeColor=#d6b656;" parent="1" vertex="1">
          <mxGeometry x="992.5" y="330" width="87.5" height="20" as="geometry" />
        </mxCell>
        <mxCell id="s5ADCJKUopqWij5MdvxX-42" value="" style="rounded=0;whiteSpace=wrap;html=1;fillColor=#fff2cc;strokeColor=#d6b656;" parent="1" vertex="1">
          <mxGeometry x="992.5" y="350" width="87.5" height="20" as="geometry" />
        </mxCell>
        <mxCell id="s5ADCJKUopqWij5MdvxX-43" value="_region_ind" style="text;html=1;strokeColor=none;fillColor=none;align=center;verticalAlign=middle;whiteSpace=wrap;rounded=0;" parent="1" vertex="1">
          <mxGeometry x="920" y="235" width="60" height="30" as="geometry" />
        </mxCell>
        <mxCell id="s5ADCJKUopqWij5MdvxX-44" value="" style="edgeStyle=orthogonalEdgeStyle;rounded=0;orthogonalLoop=1;jettySize=auto;html=1;" parent="1" source="s5ADCJKUopqWij5MdvxX-45" target="s5ADCJKUopqWij5MdvxX-37" edge="1">
          <mxGeometry relative="1" as="geometry" />
        </mxCell>
        <mxCell id="s5ADCJKUopqWij5MdvxX-45" value="key：_region_ind" style="rounded=1;whiteSpace=wrap;html=1;fillColor=#dae8fc;strokeColor=#6c8ebf;" parent="1" vertex="1">
          <mxGeometry x="955" y="30" width="120" height="60" as="geometry" />
        </mxCell>
        <mxCell id="s5ADCJKUopqWij5MdvxX-46" value="" style="rounded=0;whiteSpace=wrap;html=1;fillColor=#fff2cc;strokeColor=#d6b656;" parent="1" vertex="1">
          <mxGeometry x="462.5" y="370" width="87.5" height="20" as="geometry" />
        </mxCell>
        <mxCell id="s5ADCJKUopqWij5MdvxX-47" value="" style="rounded=0;whiteSpace=wrap;html=1;fillColor=#fff2cc;strokeColor=#d6b656;" parent="1" vertex="1">
          <mxGeometry x="462.5" y="390" width="87.5" height="20" as="geometry" />
        </mxCell>
        <mxCell id="s5ADCJKUopqWij5MdvxX-48" value="" style="rounded=0;whiteSpace=wrap;html=1;fillColor=#fff2cc;strokeColor=#d6b656;" parent="1" vertex="1">
          <mxGeometry x="992.5" y="370" width="87.5" height="20" as="geometry" />
        </mxCell>
      </root>
    </mxGraphModel>
  </diagram>
  <diagram id="GHXvNgF8Tv3ax6OHYOXH" name="细粒度prt">
    <mxGraphModel dx="1219" dy="713" grid="1" gridSize="10" guides="1" tooltips="1" connect="1" arrows="1" fold="1" page="1" pageScale="1" pageWidth="827" pageHeight="1169" math="0" shadow="0">
      <root>
        <mxCell id="0" />
        <mxCell id="1" parent="0" />
        <mxCell id="NdhhSufG8kISONZ2w3cd-41" value="" style="rounded=0;whiteSpace=wrap;html=1;fillColor=#f5f5f5;fontColor=#333333;strokeColor=#666666;" vertex="1" parent="1">
          <mxGeometry x="220" y="70" width="760" height="280" as="geometry" />
        </mxCell>
        <mxCell id="NdhhSufG8kISONZ2w3cd-11" value="" style="rounded=1;whiteSpace=wrap;html=1;fillColor=#e1d5e7;strokeColor=#9673a6;" vertex="1" parent="1">
          <mxGeometry x="240" y="130" width="350" height="190" as="geometry" />
        </mxCell>
        <mxCell id="NdhhSufG8kISONZ2w3cd-26" style="edgeStyle=orthogonalEdgeStyle;rounded=0;orthogonalLoop=1;jettySize=auto;html=1;fontColor=#000000;" edge="1" parent="1" source="NdhhSufG8kISONZ2w3cd-1">
          <mxGeometry relative="1" as="geometry">
            <mxPoint x="270" y="430" as="targetPoint" />
            <Array as="points">
              <mxPoint x="190" y="200" />
              <mxPoint x="190" y="430" />
            </Array>
          </mxGeometry>
        </mxCell>
        <mxCell id="NdhhSufG8kISONZ2w3cd-28" value="指向&lt;br&gt;Region的&lt;br&gt;起始地址" style="edgeLabel;html=1;align=center;verticalAlign=middle;resizable=0;points=[];" vertex="1" connectable="0" parent="NdhhSufG8kISONZ2w3cd-26">
          <mxGeometry x="0.0959" y="2" relative="1" as="geometry">
            <mxPoint as="offset" />
          </mxGeometry>
        </mxCell>
        <mxCell id="NdhhSufG8kISONZ2w3cd-1" value="HeapRegion的起始地址：_hr" style="rounded=0;whiteSpace=wrap;html=1;fillColor=#dae8fc;strokeColor=#6c8ebf;" vertex="1" parent="1">
          <mxGeometry x="320" y="170" width="120" height="60" as="geometry" />
        </mxCell>
        <mxCell id="NdhhSufG8kISONZ2w3cd-2" value="0" style="rounded=0;whiteSpace=wrap;html=1;fillColor=#fff2cc;strokeColor=#d6b656;" vertex="1" parent="1">
          <mxGeometry x="320" y="250" width="40" height="40" as="geometry" />
        </mxCell>
        <mxCell id="NdhhSufG8kISONZ2w3cd-3" value="位图：_bm" style="text;html=1;strokeColor=none;fillColor=none;align=center;verticalAlign=middle;whiteSpace=wrap;rounded=0;" vertex="1" parent="1">
          <mxGeometry x="250" y="255" width="70" height="30" as="geometry" />
        </mxCell>
        <mxCell id="NdhhSufG8kISONZ2w3cd-4" value="0" style="rounded=0;whiteSpace=wrap;html=1;fillColor=#fff2cc;strokeColor=#d6b656;" vertex="1" parent="1">
          <mxGeometry x="360" y="250" width="40" height="40" as="geometry" />
        </mxCell>
        <mxCell id="NdhhSufG8kISONZ2w3cd-5" value="0" style="rounded=0;whiteSpace=wrap;html=1;fillColor=#fff2cc;strokeColor=#d6b656;" vertex="1" parent="1">
          <mxGeometry x="400" y="250" width="40" height="40" as="geometry" />
        </mxCell>
        <mxCell id="NdhhSufG8kISONZ2w3cd-6" value="0" style="rounded=0;whiteSpace=wrap;html=1;fillColor=#fff2cc;strokeColor=#d6b656;" vertex="1" parent="1">
          <mxGeometry x="440" y="250" width="40" height="40" as="geometry" />
        </mxCell>
        <mxCell id="NdhhSufG8kISONZ2w3cd-10" value="" style="rounded=0;whiteSpace=wrap;html=1;fillColor=#f8cecc;strokeColor=#b85450;" vertex="1" parent="1">
          <mxGeometry x="270" y="430" width="120" height="60" as="geometry" />
        </mxCell>
        <mxCell id="NdhhSufG8kISONZ2w3cd-13" value="PerRegionTable" style="text;html=1;strokeColor=none;fillColor=none;align=center;verticalAlign=middle;whiteSpace=wrap;rounded=0;fontStyle=1;fontSize=15;" vertex="1" parent="1">
          <mxGeometry x="390" y="130" width="60" height="30" as="geometry" />
        </mxCell>
        <mxCell id="NdhhSufG8kISONZ2w3cd-14" value="512Byte" style="text;html=1;strokeColor=none;fillColor=none;align=center;verticalAlign=middle;whiteSpace=wrap;rounded=0;" vertex="1" parent="1">
          <mxGeometry x="300" y="390" width="60" height="30" as="geometry" />
        </mxCell>
        <mxCell id="NdhhSufG8kISONZ2w3cd-15" value="" style="endArrow=none;dashed=1;html=1;dashPattern=1 3;strokeWidth=2;rounded=0;exitX=0;exitY=0;exitDx=0;exitDy=0;" edge="1" parent="1" source="NdhhSufG8kISONZ2w3cd-10">
          <mxGeometry width="50" height="50" relative="1" as="geometry">
            <mxPoint x="270" y="340" as="sourcePoint" />
            <mxPoint x="320" y="290" as="targetPoint" />
          </mxGeometry>
        </mxCell>
        <mxCell id="NdhhSufG8kISONZ2w3cd-16" value="1bit" style="text;html=1;strokeColor=none;fillColor=none;align=center;verticalAlign=middle;whiteSpace=wrap;rounded=0;" vertex="1" parent="1">
          <mxGeometry x="310" y="290" width="60" height="30" as="geometry" />
        </mxCell>
        <mxCell id="NdhhSufG8kISONZ2w3cd-17" value="" style="endArrow=none;dashed=1;html=1;dashPattern=1 3;strokeWidth=2;rounded=0;exitX=1;exitY=0;exitDx=0;exitDy=0;" edge="1" parent="1" source="NdhhSufG8kISONZ2w3cd-10">
          <mxGeometry width="50" height="50" relative="1" as="geometry">
            <mxPoint x="310" y="340" as="sourcePoint" />
            <mxPoint x="360" y="290" as="targetPoint" />
          </mxGeometry>
        </mxCell>
        <mxCell id="NdhhSufG8kISONZ2w3cd-18" value="Region" style="text;html=1;strokeColor=none;fillColor=none;align=center;verticalAlign=middle;whiteSpace=wrap;rounded=0;fontStyle=1;fontSize=17;" vertex="1" parent="1">
          <mxGeometry x="200" y="445" width="60" height="30" as="geometry" />
        </mxCell>
        <mxCell id="NdhhSufG8kISONZ2w3cd-19" value="" style="rounded=0;whiteSpace=wrap;html=1;fillColor=#f8cecc;strokeColor=#b85450;" vertex="1" parent="1">
          <mxGeometry x="390" y="430" width="120" height="60" as="geometry" />
        </mxCell>
        <mxCell id="NdhhSufG8kISONZ2w3cd-20" value="" style="rounded=0;whiteSpace=wrap;html=1;fillColor=#f8cecc;strokeColor=#b85450;" vertex="1" parent="1">
          <mxGeometry x="510" y="430" width="120" height="60" as="geometry" />
        </mxCell>
        <mxCell id="NdhhSufG8kISONZ2w3cd-21" value="" style="rounded=0;whiteSpace=wrap;html=1;fillColor=#f8cecc;strokeColor=#b85450;" vertex="1" parent="1">
          <mxGeometry x="630" y="430" width="120" height="60" as="geometry" />
        </mxCell>
        <mxCell id="NdhhSufG8kISONZ2w3cd-23" value="" style="endArrow=none;dashed=1;html=1;dashPattern=1 3;strokeWidth=2;rounded=0;exitX=0;exitY=0;exitDx=0;exitDy=0;" edge="1" parent="1" source="NdhhSufG8kISONZ2w3cd-20">
          <mxGeometry width="50" height="50" relative="1" as="geometry">
            <mxPoint x="350" y="340" as="sourcePoint" />
            <mxPoint x="400" y="290" as="targetPoint" />
          </mxGeometry>
        </mxCell>
        <mxCell id="NdhhSufG8kISONZ2w3cd-24" value="" style="endArrow=none;dashed=1;html=1;dashPattern=1 3;strokeWidth=2;rounded=0;exitX=0;exitY=0;exitDx=0;exitDy=0;" edge="1" parent="1" source="NdhhSufG8kISONZ2w3cd-21">
          <mxGeometry width="50" height="50" relative="1" as="geometry">
            <mxPoint x="390" y="340" as="sourcePoint" />
            <mxPoint x="440" y="290" as="targetPoint" />
          </mxGeometry>
        </mxCell>
        <mxCell id="NdhhSufG8kISONZ2w3cd-25" value="" style="endArrow=none;dashed=1;html=1;dashPattern=1 3;strokeWidth=2;rounded=0;exitX=1;exitY=0;exitDx=0;exitDy=0;" edge="1" parent="1" source="NdhhSufG8kISONZ2w3cd-21">
          <mxGeometry width="50" height="50" relative="1" as="geometry">
            <mxPoint x="430" y="340" as="sourcePoint" />
            <mxPoint x="480" y="290" as="targetPoint" />
          </mxGeometry>
        </mxCell>
        <mxCell id="NdhhSufG8kISONZ2w3cd-29" value="obj" style="ellipse;whiteSpace=wrap;html=1;aspect=fixed;fillColor=#f0a30a;strokeColor=#BD7000;fontColor=#000000;" vertex="1" parent="1">
          <mxGeometry x="280" y="445" width="35" height="35" as="geometry" />
        </mxCell>
        <mxCell id="NdhhSufG8kISONZ2w3cd-31" value="" style="rounded=1;whiteSpace=wrap;html=1;fillColor=#e1d5e7;strokeColor=#9673a6;" vertex="1" parent="1">
          <mxGeometry x="610" y="130" width="350" height="190" as="geometry" />
        </mxCell>
        <mxCell id="NdhhSufG8kISONZ2w3cd-32" value="_hr" style="rounded=0;whiteSpace=wrap;html=1;fillColor=#dae8fc;strokeColor=#6c8ebf;" vertex="1" parent="1">
          <mxGeometry x="690" y="170" width="120" height="60" as="geometry" />
        </mxCell>
        <mxCell id="NdhhSufG8kISONZ2w3cd-33" value="0" style="rounded=0;whiteSpace=wrap;html=1;fillColor=#fff2cc;strokeColor=#d6b656;" vertex="1" parent="1">
          <mxGeometry x="690" y="250" width="40" height="40" as="geometry" />
        </mxCell>
        <mxCell id="NdhhSufG8kISONZ2w3cd-34" value="_bm" style="text;html=1;strokeColor=none;fillColor=none;align=center;verticalAlign=middle;whiteSpace=wrap;rounded=0;" vertex="1" parent="1">
          <mxGeometry x="630" y="255" width="60" height="30" as="geometry" />
        </mxCell>
        <mxCell id="NdhhSufG8kISONZ2w3cd-35" value="0" style="rounded=0;whiteSpace=wrap;html=1;fillColor=#fff2cc;strokeColor=#d6b656;" vertex="1" parent="1">
          <mxGeometry x="730" y="250" width="40" height="40" as="geometry" />
        </mxCell>
        <mxCell id="NdhhSufG8kISONZ2w3cd-36" value="0" style="rounded=0;whiteSpace=wrap;html=1;fillColor=#fff2cc;strokeColor=#d6b656;" vertex="1" parent="1">
          <mxGeometry x="770" y="250" width="40" height="40" as="geometry" />
        </mxCell>
        <mxCell id="NdhhSufG8kISONZ2w3cd-37" value="0" style="rounded=0;whiteSpace=wrap;html=1;fillColor=#fff2cc;strokeColor=#d6b656;" vertex="1" parent="1">
          <mxGeometry x="810" y="250" width="40" height="40" as="geometry" />
        </mxCell>
        <mxCell id="NdhhSufG8kISONZ2w3cd-38" value="PerRegionTable" style="text;html=1;strokeColor=none;fillColor=none;align=center;verticalAlign=middle;whiteSpace=wrap;rounded=0;fontStyle=1;fontSize=15;" vertex="1" parent="1">
          <mxGeometry x="760" y="130" width="60" height="30" as="geometry" />
        </mxCell>
        <mxCell id="NdhhSufG8kISONZ2w3cd-42" value="细粒度PRT" style="text;html=1;strokeColor=none;fillColor=none;align=center;verticalAlign=middle;whiteSpace=wrap;rounded=0;fontStyle=1;fontSize=22;" vertex="1" parent="1">
          <mxGeometry x="525" y="76" width="150" height="30" as="geometry" />
        </mxCell>
      </root>
    </mxGraphModel>
  </diagram>
</mxfile>
